<?xml version="1.0" encoding="utf-8"?>
<!-- Generator: Adobe Illustrator 19.0.0, SVG Export Plug-In . SVG Version: 6.00 Build 0)  -->
<svg version="1.1" id="Layer_3" xmlns="http://www.w3.org/2000/svg" xmlns:xlink="http://www.w3.org/1999/xlink" x="0px" y="0px"
	 viewBox="0 0 773.2 792" style="enable-background:new 0 0 773.2 792;" xml:space="preserve">
<g id="XMLID_35_">
	<g id="XMLID_28_">
		<path id="XMLID_18_" d="M386.6,770.6c-100.1,0-194.1-39-264.9-109.7C51,590.1,12,496.1,12,396c0-100.1,39-194.1,109.7-264.9
			S286.6,21.4,386.6,21.4c100.1,0,194.1,39,264.9,109.7c70.8,70.8,109.7,164.8,109.7,264.9c0,100.1-39,194.1-109.7,264.9
			C580.8,731.6,486.7,770.6,386.6,770.6z M386.6,66.5C204.9,66.5,57.1,214.3,57.1,396c0,181.7,147.8,329.5,329.5,329.5
			c181.7,0,329.5-147.8,329.5-329.5C716.1,214.3,568.3,66.5,386.6,66.5z"/>
	</g>
	<g id="XMLID_41_">
		<g id="XMLID_5_">
			<path id="XMLID_17_" d="M562.6,594.6c-5.8,0-11.6-2.2-16-6.6c-8.8-8.8-8.8-23.1,0-31.9c0.6-0.6,1.2-1.2,1.8-1.8
				c8.7-8.9,23-9.1,31.9-0.3c8.9,8.7,9.1,23,0.3,31.9c-0.7,0.7-1.4,1.5-2.2,2.2C574.2,592.4,568.4,594.6,562.6,594.6z"/>
		</g>
		<g id="XMLID_4_">
			<path id="XMLID_16_" d="M605,538.1c-3.7,0-7.4-0.9-10.8-2.8c-10.9-6-14.9-19.7-8.9-30.6c10.6-19.4,18.3-40.2,22.9-61.8
				c0.2-0.9,0.4-1.7,0.7-2.6c0.1-0.9,0.2-1.8,0.3-2.6c2.5-13.6,3.8-27.7,3.8-41.7c0-6.7-0.3-13.4-0.9-20
				c-1.1-12.4,8.1-23.4,20.5-24.4c12.4-1.1,23.4,8.1,24.4,20.5c0.7,7.9,1,16,1,23.9c0,16.8-1.5,33.6-4.6,49.9
				c-0.2,1.1-0.5,2.1-0.8,3.1c-0.1,1.1-0.2,2.1-0.4,3.2c-5.5,25.9-14.7,50.9-27.5,74.2C620.7,533.8,612.9,538.1,605,538.1z"/>
		</g>
		<g id="XMLID_3_">
			<path id="XMLID_9_" d="M165.9,533.7c-8.1,0-16-4.4-20-12.1c-11.5-22-19.9-45.4-25-69.7c-0.2-1.1-0.4-2.1-0.4-3.2
				c-0.3-1-0.6-2-0.8-3.1c-3-16.3-4.5-33-4.5-49.6c0-9.8,0.5-19.6,1.6-29.3c1.3-12.4,12.5-21.4,24.8-20c12.4,1.3,21.4,12.5,20,24.8
				c-0.9,8.1-1.3,16.3-1.3,24.5c0,13.9,1.3,27.9,3.8,41.4c0.2,0.9,0.3,1.8,0.3,2.7c0.3,0.8,0.5,1.7,0.7,2.6
				c4.2,20.2,11.2,39.7,20.8,58c5.8,11,1.5,24.7-9.5,30.5C173,532.9,169.4,533.7,165.9,533.7z M617.8,326.1c-8.9,0-17.4-5.4-21-14.2
				c-0.7-1.7-1.3-3.3-2-4.9c-4.9-11.5,0.4-24.7,11.8-29.6c11.5-4.9,24.7,0.4,29.6,11.8c0.8,2,1.7,3.9,2.5,5.9
				c4.6,11.6-1,24.7-12.6,29.3C623.4,325.6,620.6,326.1,617.8,326.1z M155.5,325.9c-2.8,0-5.6-0.5-8.4-1.6
				c-11.6-4.6-17.2-17.8-12.5-29.3c0.8-2,1.6-3.9,2.4-5.9c4.9-11.5,18.2-16.8,29.6-11.8c11.5,4.9,16.8,18.2,11.8,29.6
				c-0.7,1.6-1.4,3.3-2,4.9C173,320.5,164.5,325.9,155.5,325.9z M580.5,262.5c-6.6,0-13.1-2.9-17.6-8.4
				c-13.9-17.2-30.2-32.3-48.4-44.8c-0.7-0.5-1.4-1.1-2.1-1.6c-0.8-0.4-1.6-0.8-2.3-1.3c-17.3-11.3-36.1-20.2-55.7-26.3
				c-11.9-3.7-18.5-16.4-14.8-28.3c3.7-11.9,16.4-18.5,28.3-14.8c23.6,7.4,46.1,18,66.9,31.6c0.9,0.6,1.8,1.2,2.6,1.9
				c0.9,0.5,1.9,1,2.8,1.6c21.8,15,41.3,33.1,58,53.7c7.8,9.7,6.3,23.9-3.4,31.7C590.5,260.9,585.5,262.5,580.5,262.5z M195.8,258.8
				c-5.1,0-10.3-1.7-14.5-5.3c-9.6-8-10.8-22.2-2.8-31.8c15.9-19,34.3-35.7,54.7-49.7c0.9-0.6,1.8-1.2,2.8-1.6
				c0.8-0.7,1.6-1.3,2.6-1.9c22.2-14.5,46.4-25.6,71.8-33c12-3.5,24.5,3.4,28,15.3c3.5,12-3.4,24.5-15.3,28
				c-21.2,6.2-41.3,15.4-59.8,27.5c-0.8,0.5-1.5,0.9-2.3,1.3c-0.7,0.6-1.4,1.1-2.1,1.6c-17,11.7-32.4,25.6-45.7,41.5
				C208.6,256,202.2,258.8,195.8,258.8z M389.6,169.7c-0.1,0-0.2,0-0.3,0c-0.9,0-1.8,0-2.7,0c-0.9,0-1.8,0-2.6,0
				c-12.5,0.2-22.7-9.9-22.8-22.3c-0.1-12.5,9.9-22.7,22.3-22.8c1.1,0,2.2,0,3.2,0c1,0,2.1,0,3.2,0c12.5,0.2,22.4,10.4,22.3,22.8
				C412,159.8,402,169.7,389.6,169.7z"/>
		</g>
		<g id="XMLID_2_">
			<path id="XMLID_8_" d="M210.6,594.6c-5.8,0-11.5-2.2-16-6.6c-0.7-0.7-1.4-1.5-2.2-2.2c-8.7-8.9-8.5-23.2,0.4-31.9
				c8.9-8.7,23.2-8.5,31.9,0.4c0.6,0.6,1.2,1.2,1.8,1.8c8.8,8.8,8.8,23.1,0,31.9C222.2,592.4,216.4,594.6,210.6,594.6z"/>
		</g>
	</g>
	<g id="XMLID_40_">
		<path id="XMLID_7_" d="M470.5,502.5c-5.8,0-11.6-2.2-16-6.6c-8.8-8.8-8.8-23.1,0-31.9c18.2-18.1,28.1-42.3,28.1-68
			c0-53-43.1-96.1-96.1-96.1c-53,0-96.1,43.1-96.1,96.1c0,25.7,10,49.8,28.1,68c8.8,8.8,8.8,23.1,0,31.9c-8.8,8.8-23.1,8.8-31.9,0
			c-26.7-26.7-41.4-62.1-41.4-99.9c0-77.9,63.4-141.2,141.2-141.2c77.9,0,141.2,63.4,141.2,141.2c0,37.7-14.7,73.2-41.4,99.9
			C482.1,500.3,476.3,502.5,470.5,502.5z"/>
	</g>
	<g id="XMLID_32_">
		<path id="XMLID_6_" d="M635.5,667.5c-5.8,0-11.6-2.2-16-6.6L386.6,427.9L153.7,660.8c-8.8,8.8-23.1,8.8-31.9,0
			c-8.8-8.8-8.8-23.1,0-31.9L370.7,380c8.8-8.8,23.1-8.8,31.9,0l248.9,248.9c8.8,8.8,8.8,23.1,0,31.9
			C647.1,665.2,641.3,667.5,635.5,667.5z"/>
	</g>
</g>
</svg>
